<svg width="800" height="600" viewBox="0 0 800 600" fill="none" xmlns="http://www.w3.org/2000/svg">
  <rect width="800" height="600" fill="#EAF0F5"/>
  <rect y="390" width="800" height="210" fill="#A6B7C7"/>
  <rect y="444" width="800" height="156" fill="#7F624A"/>
  <rect x="92" y="160" width="244" height="188" rx="18" fill="#102234"/>
  <rect x="124" y="196" width="80" height="26" rx="13" fill="#8CC6E8"/>
  <rect x="124" y="242" width="180" height="18" rx="9" fill="#D2DEE8"/>
  <rect x="124" y="278" width="154" height="18" rx="9" fill="#D2DEE8"/>
  <rect x="444" y="254" width="210" height="88" rx="16" fill="#1D5D87"/>
  <rect x="492" y="188" width="114" height="84" rx="10" fill="#2E7DB0"/>
  <circle cx="492" cy="364" r="28" fill="#1A2F45"/>
  <circle cx="606" cy="364" r="28" fill="#1A2F45"/>
  <rect x="390" y="348" width="304" height="18" rx="9" fill="#D18A2C"/>
  <path d="M0 498C86 476 170 466 252 466C380 466 472 514 596 514C668 514 736 502 800 482V600H0V498Z" fill="#5C4739"/>
</svg>
