<svg width="900" height="675" viewBox="0 0 900 675" fill="none" xmlns="http://www.w3.org/2000/svg">
  <rect width="900" height="675" fill="#E6EDF3"/>
  <rect y="436" width="900" height="239" fill="#A3B4C3"/>
  <rect y="510" width="900" height="165" fill="#81634B"/>
  <rect x="82" y="186" width="286" height="200" rx="18" fill="#102234"/>
  <rect x="406" y="270" width="186" height="86" rx="16" fill="#1D5D87"/>
  <rect x="630" y="288" width="166" height="68" rx="16" fill="#D18A2C"/>
  <rect x="442" y="214" width="102" height="64" rx="10" fill="#2E7DB0"/>
  <rect x="656" y="238" width="114" height="58" rx="10" fill="#F3A33D"/>
  <circle cx="452" cy="382" r="28" fill="#1A2F45"/>
  <circle cx="546" cy="382" r="28" fill="#1A2F45"/>
  <circle cx="660" cy="382" r="28" fill="#1A2F45"/>
  <circle cx="756" cy="382" r="28" fill="#1A2F45"/>
  <path d="M0 566C112 532 212 518 300 518C426 518 528 566 642 566C730 566 820 552 900 530V675H0V566Z" fill="#604B3D"/>
</svg>
