<svg width="800" height="600" viewBox="0 0 800 600" fill="none" xmlns="http://www.w3.org/2000/svg">
  <rect width="800" height="600" fill="#E8EFF5"/>
  <rect y="408" width="800" height="192" fill="#97AABD"/>
  <rect y="468" width="800" height="132" fill="#7C5E48"/>
  <rect x="76" y="286" width="210" height="100" rx="18" fill="#1D5D87"/>
  <rect x="110" y="222" width="92" height="72" rx="12" fill="#2E7DB0"/>
  <circle cx="140" cy="402" r="30" fill="#1A2F45"/>
  <circle cx="238" cy="402" r="30" fill="#1A2F45"/>
  <rect x="382" y="228" width="68" height="228" rx="20" fill="#4D667A"/>
  <path d="M314 332H512L576 386H250L314 332Z" fill="#61788B"/>
  <rect x="504" y="284" width="180" height="102" rx="18" fill="#16324C"/>
  <rect x="530" y="312" width="118" height="16" rx="8" fill="#8CC6E8"/>
  <rect x="530" y="344" width="98" height="16" rx="8" fill="#C8D8E4"/>
  <path d="M0 520C98 484 184 466 258 466C378 466 464 520 580 520C654 520 728 504 800 476V600H0V520Z" fill="#5B4738"/>
</svg>
