<svg width="900" height="675" viewBox="0 0 900 675" fill="none" xmlns="http://www.w3.org/2000/svg">
  <rect width="900" height="675" fill="#E2EAF1"/>
  <rect y="448" width="900" height="227" fill="#94A9BB"/>
  <rect y="516" width="900" height="159" fill="#81634C"/>
  <rect x="106" y="284" width="242" height="110" rx="18" fill="#D18A2C"/>
  <rect x="156" y="208" width="100" height="82" rx="12" fill="#F3A33D"/>
  <circle cx="164" cy="410" r="34" fill="#1A2F45"/>
  <circle cx="292" cy="410" r="34" fill="#1A2F45"/>
  <rect x="432" y="212" width="64" height="224" rx="20" fill="#4D667A"/>
  <path d="M360 330H566L620 380H306L360 330Z" fill="#62798C"/>
  <path d="M0 560C126 526 214 504 320 504C470 504 568 562 724 562C784 562 842 554 900 538V675H0V560Z" fill="#614B3D"/>
</svg>
