<svg width="900" height="675" viewBox="0 0 900 675" fill="none" xmlns="http://www.w3.org/2000/svg">
  <rect width="900" height="675" fill="#E7EEF4"/>
  <rect y="426" width="900" height="249" fill="#A2B2C1"/>
  <rect y="502" width="900" height="173" fill="#7D6048"/>
  <rect x="132" y="154" width="636" height="224" rx="26" fill="#16324C"/>
  <rect x="176" y="198" width="156" height="20" rx="10" fill="#8CC6E8"/>
  <rect x="176" y="248" width="504" height="18" rx="9" fill="#D5E1EA"/>
  <rect x="176" y="286" width="448" height="18" rx="9" fill="#D5E1EA"/>
  <rect x="176" y="324" width="396" height="18" rx="9" fill="#D5E1EA"/>
  <rect x="250" y="402" width="400" height="16" rx="8" fill="#D18A2C"/>
  <path d="M114 480H786L706 554H194L114 480Z" fill="#5E7486"/>
  <path d="M0 574C110 538 220 522 330 522C464 522 570 568 680 568C758 568 832 556 900 540V675H0V574Z" fill="#614B3D"/>
</svg>
